<?xml version="1.0" encoding="iso-8859-1"?>
<!-- Generator: Adobe Illustrator 19.0.0, SVG Export Plug-In . SVG Version: 6.00 Build 0)  -->
<svg version="1.1" id="Capa_1" xmlns="http://www.w3.org/2000/svg" xmlns:xlink="http://www.w3.org/1999/xlink" x="0px" y="0px"
	 viewBox="0 0 512 512" style="enable-background:new 0 0 512 512;" xml:space="preserve">
<path style="fill:#303C42;" d="M501.333,64H10.667C4.771,64,0,68.771,0,74.667v362.667C0,443.229,4.771,448,10.667,448h490.667
	c5.896,0,10.667-4.771,10.667-10.667V74.667C512,68.771,507.229,64,501.333,64z"/>
<g>
	<polygon style="fill:#546E7A;" points="454.25,106.667 57.75,106.667 36.417,85.333 475.583,85.333 	"/>
	<rect x="64" y="128" style="fill:#546E7A;" width="384" height="42.667"/>
	<polygon style="fill:#546E7A;" points="42.667,121.75 42.667,178.104 21.333,210.104 21.333,100.417 	"/>
	<rect x="21.333" y="362.667" style="fill:#546E7A;" width="469.333" height="21.333"/>
	<rect x="21.333" y="320" style="fill:#546E7A;" width="469.333" height="21.333"/>
	<rect x="21.333" y="277.333" style="fill:#546E7A;" width="469.333" height="21.333"/>
</g>
<rect x="21.333" y="277.333" style="opacity:0.2;enable-background:new    ;" width="469.333" height="10.667"/>
<rect x="21.333" y="320" style="opacity:0.2;enable-background:new    ;" width="469.333" height="10.667"/>
<rect x="21.333" y="362.667" style="opacity:0.2;enable-background:new    ;" width="469.333" height="10.667"/>
<g>
	<polygon style="fill:#546E7A;" points="21.333,256 21.333,248.563 59.042,192 452.958,192 490.667,248.563 490.667,256 	"/>
	<polygon style="fill:#546E7A;" points="469.333,178.104 469.333,121.75 490.667,100.417 490.667,210.104 	"/>
	<rect x="21.333" y="405.333" style="fill:#546E7A;" width="469.333" height="21.333"/>
</g>
<g>
	<path style="fill:#78909C;" d="M330.667,213.333H181.333c-5.896,0-10.667,4.771-10.667,10.667c0,5.896,4.771,10.667,10.667,10.667
		h149.333c5.896,0,10.667-4.771,10.667-10.667C341.333,218.104,336.563,213.333,330.667,213.333z"/>
	<path style="fill:#78909C;" d="M96,202.667c-5.896,0-10.667,4.771-10.667,10.667v21.333c0,5.896,4.771,10.667,10.667,10.667
		c5.896,0,10.667-4.771,10.667-10.667v-21.333C106.667,207.438,101.896,202.667,96,202.667z"/>
	<path style="fill:#78909C;" d="M138.667,202.667c-5.896,0-10.667,4.771-10.667,10.667v21.333c0,5.896,4.771,10.667,10.667,10.667
		s10.667-4.771,10.667-10.667v-21.333C149.333,207.438,144.563,202.667,138.667,202.667z"/>
	<path style="fill:#78909C;" d="M373.333,202.667c-5.896,0-10.667,4.771-10.667,10.667v21.333c0,5.896,4.771,10.667,10.667,10.667
		S384,240.563,384,234.667v-21.333C384,207.438,379.229,202.667,373.333,202.667z"/>
	<path style="fill:#78909C;" d="M416,202.667c-5.896,0-10.667,4.771-10.667,10.667v21.333c0,5.896,4.771,10.667,10.667,10.667
		c5.896,0,10.667-4.771,10.667-10.667v-21.333C426.667,207.438,421.896,202.667,416,202.667z"/>
</g>
<rect x="21.333" y="405.333" style="opacity:0.2;enable-background:new    ;" width="469.333" height="10.667"/>
<linearGradient id="SVGID_1_" gradientUnits="userSpaceOnUse" x1="-47.8589" y1="640.6156" x2="-21.5473" y2="628.3531" gradientTransform="matrix(21.3333 0 0 -21.3333 996.3334 13791.667)">
	<stop  offset="0" style="stop-color:#FFFFFF;stop-opacity:0.2"/>
	<stop  offset="1" style="stop-color:#FFFFFF;stop-opacity:0"/>
</linearGradient>
<path style="fill:url(#SVGID_1_);" d="M501.333,64H10.667C4.771,64,0,68.771,0,74.667v362.667C0,443.229,4.771,448,10.667,448
	h490.667c5.896,0,10.667-4.771,10.667-10.667V74.667C512,68.771,507.229,64,501.333,64z"/>
<g>
</g>
<g>
</g>
<g>
</g>
<g>
</g>
<g>
</g>
<g>
</g>
<g>
</g>
<g>
</g>
<g>
</g>
<g>
</g>
<g>
</g>
<g>
</g>
<g>
</g>
<g>
</g>
<g>
</g>
</svg>
