<?xml version="1.0" encoding="iso-8859-1"?>
<!-- Generator: Adobe Illustrator 19.0.0, SVG Export Plug-In . SVG Version: 6.00 Build 0)  -->
<svg version="1.1" id="Capa_1" xmlns="http://www.w3.org/2000/svg" xmlns:xlink="http://www.w3.org/1999/xlink" x="0px" y="0px"
	 viewBox="0 0 469.333 469.333" style="enable-background:new 0 0 469.333 469.333;" xml:space="preserve">
<path style="fill:#303C42;" d="M426.667,0h-384C19.135,0,0,19.135,0,42.667v384c0,23.531,19.135,42.667,42.667,42.667h384
	c23.531,0,42.667-19.135,42.667-42.667v-384C469.333,19.135,450.198,0,426.667,0z"/>
<path style="fill:#455A64;" d="M448,426.667c0,11.76-9.573,21.333-21.333,21.333h-384c-11.76,0-21.333-9.573-21.333-21.333v-384
	c0-11.76,9.573-21.333,21.333-21.333h384c11.76,0,21.333,9.573,21.333,21.333V426.667z"/>
<path style="fill:#303C42;" d="M309.333,362.667H160c-17.646,0-32,14.354-32,32c0,17.646,14.354,32,32,32h149.333
	c17.646,0,32-14.354,32-32C341.333,377.021,326.979,362.667,309.333,362.667z"/>
<linearGradient id="SVGID_1_" gradientUnits="userSpaceOnUse" x1="-53.5948" y1="613.713" x2="-48.4684" y2="608.5856" gradientTransform="matrix(21.3333 0 0 -21.3333 1430.1112 13315.2227)">
	<stop  offset="0" style="stop-color:#000000;stop-opacity:0.15"/>
	<stop  offset="0.974" style="stop-color:#000000;stop-opacity:0.004"/>
	<stop  offset="1" style="stop-color:#000000;stop-opacity:0"/>
</linearGradient>
<path style="fill:url(#SVGID_1_);" d="M395.945,313.145l0.022-0.023l-60.358-85.999l-0.013,0.012
	c-5.784-8.32-15.383-13.801-26.263-13.801c-17.646,0-32,14.354-32,32c0,10.091,4.788,18.996,12.108,24.866l88.215,62.285l0.066-0.07
	c2.374,2.178,5.477,3.586,8.944,3.586c7.353,0,13.333-5.982,13.333-13.333C400,318.927,398.432,315.568,395.945,313.145z"/>
<path style="fill:#D32F2F;" d="M309.333,405.333H160c-5.885,0-10.667-4.781-10.667-10.667c0-5.885,4.781-10.667,10.667-10.667
	h149.333c5.885,0,10.667,4.781,10.667,10.667C320,400.552,315.219,405.333,309.333,405.333z"/>
<circle style="fill:#303C42;" cx="309.333" cy="245.333" r="32"/>
<circle style="fill:#D32F2F;" cx="309.333" cy="245.333" r="10.667"/>
<path style="fill:#303C42;" d="M416,42.667H53.333c-5.896,0-10.667,4.771-10.667,10.667v128c0,5.896,4.771,10.667,10.667,10.667
	h85.333c5.896,0,10.667-4.771,10.667-10.667v-32h181.333c5.896,0,10.667-4.771,10.667-10.667v-32H416
	c5.896,0,10.667-4.771,10.667-10.667V53.333C426.667,47.438,421.896,42.667,416,42.667z"/>
<g>
	<rect x="245.333" y="64" style="fill:#FF8F00;" width="74.667" height="21.333"/>
	<rect x="149.333" y="64" style="fill:#FF8F00;" width="74.667" height="21.333"/>
</g>
<rect x="64" y="106.667" style="fill:#FDD835;" width="64" height="21.333"/>
<rect x="64" y="64" style="fill:#FF8F00;" width="64" height="21.333"/>
<rect x="64" y="149.333" style="fill:#9CCC65;" width="64" height="21.333"/>
<g>
	<rect x="149.333" y="106.667" style="fill:#FDD835;" width="74.667" height="21.333"/>
	<rect x="245.333" y="106.667" style="fill:#FDD835;" width="74.667" height="21.333"/>
</g>
<rect x="341.333" y="64" style="fill:#FF8F00;" width="64" height="21.333"/>
<linearGradient id="SVGID_2_" gradientUnits="userSpaceOnUse" x1="-68.6888" y1="619.0512" x2="-43.3842" y2="607.2509" gradientTransform="matrix(21.3333 0 0 -21.3333 1430.1112 13315.2227)">
	<stop  offset="0" style="stop-color:#FFFFFF;stop-opacity:0.2"/>
	<stop  offset="1" style="stop-color:#FFFFFF;stop-opacity:0"/>
</linearGradient>
<path style="fill:url(#SVGID_2_);" d="M426.667,0h-384C19.135,0,0,19.135,0,42.667v384c0,23.531,19.135,42.667,42.667,42.667h384
	c23.531,0,42.667-19.135,42.667-42.667v-384C469.333,19.135,450.198,0,426.667,0z"/>
<path style="opacity:0.2;fill:#FFFFFF;enable-background:new    ;" d="M309.333,384H160c-5.885,0-10.667,4.781-10.667,10.667H320
	C320,388.781,315.219,384,309.333,384z"/>
<g>
</g>
<g>
</g>
<g>
</g>
<g>
</g>
<g>
</g>
<g>
</g>
<g>
</g>
<g>
</g>
<g>
</g>
<g>
</g>
<g>
</g>
<g>
</g>
<g>
</g>
<g>
</g>
<g>
</g>
</svg>
