<?xml version="1.0" encoding="iso-8859-1"?>
<!-- Generator: Adobe Illustrator 19.0.0, SVG Export Plug-In . SVG Version: 6.00 Build 0)  -->
<svg version="1.1" id="Capa_1" xmlns="http://www.w3.org/2000/svg" xmlns:xlink="http://www.w3.org/1999/xlink" x="0px" y="0px"
	 viewBox="0 0 512 512" style="enable-background:new 0 0 512 512;" xml:space="preserve">
<path style="fill:#303C42;" d="M469.333,170.667h-128v-128C341.333,19.135,322.198,0,298.667,0h-85.333
	c-23.531,0-42.667,19.135-42.667,42.667v128h-128C19.135,170.667,0,189.802,0,213.333v85.333c0,23.531,19.135,42.667,42.667,42.667
	h128v128c0,23.531,19.135,42.667,42.667,42.667h85.333c23.531,0,42.667-19.135,42.667-42.667v-128h128
	c23.531,0,42.667-19.135,42.667-42.667v-85.333C512,189.802,492.865,170.667,469.333,170.667z"/>
<path style="fill:#454F55;" d="M490.667,298.667c0,11.76-9.573,21.333-21.333,21.333H330.667c-5.896,0-10.667,4.771-10.667,10.667
	v138.667c0,11.76-9.573,21.333-21.333,21.333h-85.333c-11.76,0-21.333-9.573-21.333-21.333V330.667
	c0-5.896-4.771-10.667-10.667-10.667H42.667c-11.76,0-21.333-9.573-21.333-21.333v-85.333c0-11.76,9.573-21.333,21.333-21.333
	h138.667c5.896,0,10.667-4.771,10.667-10.667V42.667c0-11.76,9.573-21.333,21.333-21.333h85.333c11.76,0,21.333,9.573,21.333,21.333
	v138.667c0,5.896,4.771,10.667,10.667,10.667h138.667c11.76,0,21.333,9.573,21.333,21.333V298.667z"/>
<circle style="fill:#303C42;" cx="256" cy="256" r="64"/>
<linearGradient id="SVGID_1_" gradientUnits="userSpaceOnUse" x1="-34.7031" y1="636.4844" x2="-34.7031" y2="632.4844" gradientTransform="matrix(21.3333 0 0 -21.3333 996.3334 13791.667)">
	<stop  offset="0" style="stop-color:#000000;stop-opacity:0.1"/>
	<stop  offset="1" style="stop-color:#000000;stop-opacity:0"/>
</linearGradient>
<circle style="fill:url(#SVGID_1_);" cx="256" cy="256" r="42.667"/>
<circle style="fill:#596368;" cx="256" cy="256" r="42.667"/>
<path style="opacity:0.1;enable-background:new    ;" d="M217.852,261.408c0-23.531,19.135-42.667,42.667-42.667
	c11.685,0,22.273,4.734,29.986,12.367c-7.757-10.72-20.286-17.775-34.504-17.775c-23.531,0-42.667,19.135-42.667,42.667
	c0,11.846,4.862,22.563,12.681,30.299C220.932,279.277,217.852,270.721,217.852,261.408z"/>
<linearGradient id="SVGID_2_" gradientUnits="userSpaceOnUse" x1="-35.3492" y1="642.6448" x2="-24.2392" y2="631.5349" gradientTransform="matrix(21.3333 0 0 -21.3333 996.3334 13791.667)">
	<stop  offset="0" style="stop-color:#000000;stop-opacity:0.1"/>
	<stop  offset="1" style="stop-color:#000000;stop-opacity:0"/>
</linearGradient>
<path style="fill:url(#SVGID_2_);" d="M469.333,320c11.76,0,21.333-9.573,21.333-21.333V283.74L398.927,192h-68.26
	c-5.896,0-10.667-4.771-10.667-10.667v-68.26l-23.469-23.469c2.427,3.229,2.813,7.552,1.01,11.167
	c-1.813,3.615-5.5,5.896-9.542,5.896h-64c-1.836,0-3.546-0.594-5.092-1.447L433.688,320H469.333z"/>
<path style="fill:#666666;" d="M422.396,215.469c-3.208-2.427-7.552-2.802-11.167-1.01c-3.615,1.813-5.896,5.5-5.896,9.542v64
	c0,4.042,2.281,7.729,5.896,9.542c1.51,0.75,3.146,1.125,4.771,1.125c2.26,0,4.521-0.719,6.396-2.135l42.667-32
	c2.688-2.01,4.271-5.177,4.271-8.531c0-3.354-1.583-6.521-4.271-8.531L422.396,215.469z"/>
<polygon style="fill:#454F55;" points="426.667,266.667 426.667,245.333 440.885,256 "/>
<path style="fill:#666666;" d="M100.771,214.458c-3.604-1.781-7.948-1.417-11.167,1.01l-42.667,32
	c-2.688,2.01-4.271,5.177-4.271,8.531c0,3.354,1.583,6.521,4.271,8.531l42.667,32c1.875,1.417,4.125,2.135,6.396,2.135
	c1.625,0,3.26-0.375,4.771-1.125c3.615-1.813,5.896-5.5,5.896-9.542v-64C106.667,219.958,104.385,216.271,100.771,214.458z"/>
<linearGradient id="SVGID_3_" gradientUnits="userSpaceOnUse" x1="-43.2786" y1="635.3088" x2="-31.8719" y2="623.9021" gradientTransform="matrix(21.3333 0 0 -21.3333 996.3334 13791.667)">
	<stop  offset="0" style="stop-color:#000000;stop-opacity:0.1"/>
	<stop  offset="1" style="stop-color:#000000;stop-opacity:0"/>
</linearGradient>
<path style="fill:url(#SVGID_3_);" d="M320,433.117L104.118,217.236l-0.163,0.134c1.574,1.885,2.711,4.085,2.711,6.63v64
	c0,4.042-2.281,7.729-5.896,9.542c-1.51,0.75-3.146,1.125-4.771,1.125c-2.271,0-4.521-0.719-6.396-2.135l-42.667-32L102.406,320
	h78.927c5.896,0,10.667,4.771,10.667,10.667v78.927l81.073,81.073h25.594c11.76,0,21.333-9.573,21.333-21.333V433.117z"/>
<polygon style="fill:#454F55;" points="85.333,266.667 71.115,256 85.333,245.333 "/>
<path style="fill:#666666;" d="M288,405.333h-64c-4.042,0-7.729,2.281-9.542,5.896c-1.802,3.615-1.417,7.938,1.01,11.167l32,42.667
	c2.01,2.688,5.177,4.271,8.531,4.271c3.354,0,6.521-1.583,8.531-4.271l32-42.667c2.427-3.229,2.813-7.552,1.01-11.167
	C295.729,407.615,292.042,405.333,288,405.333z"/>
<polygon style="fill:#454F55;" points="256,440.885 245.333,426.667 266.667,426.667 "/>
<path style="fill:#666666;" d="M224,106.667h64c4.042,0,7.729-2.281,9.542-5.896c1.802-3.615,1.417-7.938-1.01-11.167l-32-42.667
	c-4.021-5.375-13.042-5.375-17.063,0l-32,42.667c-2.427,3.229-2.813,7.552-1.01,11.167C216.271,104.385,219.958,106.667,224,106.667
	z"/>
<polygon style="fill:#454F55;" points="256,71.115 266.667,85.333 245.333,85.333 "/>
<linearGradient id="SVGID_4_" gradientUnits="userSpaceOnUse" x1="-34.112" y1="626.1423" x2="-31.8719" y2="623.9022" gradientTransform="matrix(21.3333 0 0 -21.3333 996.3334 13791.667)">
	<stop  offset="0" style="stop-color:#000000;stop-opacity:0.1"/>
	<stop  offset="1" style="stop-color:#000000;stop-opacity:0"/>
</linearGradient>
<path style="fill:url(#SVGID_4_);" d="M294.729,407.845l-0.129,0.167c1.122,0.93,2.264,1.866,2.941,3.217
	c1.802,3.615,1.417,7.938-1.01,11.167l-32,42.667c-2.01,2.688-5.177,4.271-8.531,4.271c-2.522,0-4.766-1.124-6.664-2.711
	l-0.133,0.173l23.87,23.871h25.594c11.76,0,21.333-9.573,21.333-21.333v-36.217L294.729,407.845z"/>
<linearGradient id="SVGID_5_" gradientUnits="userSpaceOnUse" x1="-26.3299" y1="633.8569" x2="-24.1235" y2="631.6506" gradientTransform="matrix(21.3333 0 0 -21.3333 996.3334 13791.667)">
	<stop  offset="0" style="stop-color:#000000;stop-opacity:0.1"/>
	<stop  offset="1" style="stop-color:#000000;stop-opacity:0"/>
</linearGradient>
<path style="fill:url(#SVGID_5_);" d="M466.435,248.906l-0.103,0.082c1.773,1.945,3.001,4.335,3.001,7.012
	c0,3.354-1.583,6.521-4.271,8.531l-42.667,32c-1.875,1.417-4.135,2.135-6.396,2.135c-1.625,0-3.26-0.375-4.771-1.125
	c-1.031-0.517-1.664-1.457-2.456-2.245l-0.286,0.23L432.961,320h36.372c11.76,0,21.333-9.573,21.333-21.333v-25.529L466.435,248.906
	z"/>
<linearGradient id="SVGID_6_" gradientUnits="userSpaceOnUse" x1="-34.5373" y1="634.3272" x2="-29.5923" y2="629.3763" gradientTransform="matrix(21.3333 0 0 -21.3333 996.3334 13791.667)">
	<stop  offset="0" style="stop-color:#000000;stop-opacity:0.1"/>
	<stop  offset="1" style="stop-color:#000000;stop-opacity:0"/>
</linearGradient>
<path style="fill:url(#SVGID_6_);" d="M305.04,214.984l-0.194,0.158C314.163,226.262,320,240.392,320,256c0,35.292-28.708,64-64,64
	c-15.902,0-30.285-6.042-41.49-15.674L320,409.815v-79.148c0-5.896,4.771-10.667,10.667-10.667h79.391L305.04,214.984z"/>
<linearGradient id="SVGID_7_" gradientUnits="userSpaceOnUse" x1="-45.4964" y1="639.5161" x2="-23.9098" y2="629.4527" gradientTransform="matrix(21.3333 0 0 -21.3333 996.3334 13791.667)">
	<stop  offset="0" style="stop-color:#FFFFFF;stop-opacity:0.2"/>
	<stop  offset="1" style="stop-color:#FFFFFF;stop-opacity:0"/>
</linearGradient>
<path style="fill:url(#SVGID_7_);" d="M469.333,170.667h-128v-128C341.333,19.135,322.198,0,298.667,0h-85.333
	c-23.531,0-42.667,19.135-42.667,42.667v128h-128C19.135,170.667,0,189.802,0,213.333v85.333c0,23.531,19.135,42.667,42.667,42.667
	h128v128c0,23.531,19.135,42.667,42.667,42.667h85.333c23.531,0,42.667-19.135,42.667-42.667v-128h128
	c23.531,0,42.667-19.135,42.667-42.667v-85.333C512,189.802,492.865,170.667,469.333,170.667z"/>
<g>
</g>
<g>
</g>
<g>
</g>
<g>
</g>
<g>
</g>
<g>
</g>
<g>
</g>
<g>
</g>
<g>
</g>
<g>
</g>
<g>
</g>
<g>
</g>
<g>
</g>
<g>
</g>
<g>
</g>
</svg>
