<?xml version="1.0" encoding="iso-8859-1"?>
<!-- Generator: Adobe Illustrator 19.0.0, SVG Export Plug-In . SVG Version: 6.00 Build 0)  -->
<svg version="1.1" id="Capa_1" xmlns="http://www.w3.org/2000/svg" xmlns:xlink="http://www.w3.org/1999/xlink" x="0px" y="0px"
	 viewBox="0 0 512 512" style="enable-background:new 0 0 512 512;" xml:space="preserve">
<path style="fill:#303C42;" d="M384,128H128C57.417,128,0,185.417,0,256s57.417,128,128,128h256c70.583,0,128-57.417,128-128
	S454.583,128,384,128z"/>
<path id="SVGCleanerId_0" style="fill:#F2F2F2;" d="M384,362.667H128c-58.813,0-106.667-47.854-106.667-106.667
	S69.188,149.333,128,149.333h256c58.813,0,106.667,47.854,106.667,106.667S442.813,362.667,384,362.667z"/>
<g>
	<path id="SVGCleanerId_0_1_" style="fill:#F2F2F2;" d="M384,362.667H128c-58.813,0-106.667-47.854-106.667-106.667
		S69.188,149.333,128,149.333h256c58.813,0,106.667,47.854,106.667,106.667S442.813,362.667,384,362.667z"/>
</g>
<path style="fill:#303C42;" d="M330.667,170.667H181.333c-5.896,0-10.667,4.771-10.667,10.667v149.333
	c0,5.896,4.771,10.667,10.667,10.667h149.333c5.896,0,10.667-4.771,10.667-10.667V181.333
	C341.333,175.438,336.563,170.667,330.667,170.667z"/>
<rect x="192" y="192" style="fill:#5C6671;" width="128" height="128"/>
<linearGradient id="SVGID_1_" gradientUnits="userSpaceOnUse" x1="-38.3164" y1="636.1695" x2="-31.0899" y2="632.7993" gradientTransform="matrix(21.3333 0 0 -21.3333 996.3334 13791.667)">
	<stop  offset="0" style="stop-color:#FFFFFF;stop-opacity:0.3"/>
	<stop  offset="1" style="stop-color:#FFFFFF;stop-opacity:0"/>
</linearGradient>
<rect x="192" y="192" style="fill:url(#SVGID_1_);" width="128" height="128"/>
<polygon style="opacity:0.1;enable-background:new    ;" points="200,200.667 320,200.667 320,192 192,192 192,320 200,320 "/>
<path style="fill:#303C42;" d="M128,245.333h-21.333V224c0-5.896-4.771-10.667-10.667-10.667c-5.896,0-10.667,4.771-10.667,10.667
	v21.333H64c-5.896,0-10.667,4.771-10.667,10.667c0,5.896,4.771,10.667,10.667,10.667h21.333V288c0,5.896,4.771,10.667,10.667,10.667
	c5.896,0,10.667-4.771,10.667-10.667v-21.333H128c5.896,0,10.667-4.771,10.667-10.667C138.667,250.104,133.896,245.333,128,245.333z
	"/>
<linearGradient id="SVGID_2_" gradientUnits="userSpaceOnUse" x1="-39.479" y1="638.6207" x2="-28.4968" y2="627.6384" gradientTransform="matrix(21.3333 0 0 -21.3333 996.3334 13791.667)">
	<stop  offset="0" style="stop-color:#000000;stop-opacity:0.1"/>
	<stop  offset="1" style="stop-color:#000000;stop-opacity:0"/>
</linearGradient>
<path style="fill:url(#SVGID_2_);" d="M106.667,245.333H128c1.918,0,3.621,0.642,5.176,1.526l-27.889-27.889l-0.014,0.048
	c0.814,1.507,1.395,3.148,1.395,4.982V245.333z M85.333,266.667H64c-2.456,0-4.611-0.966-6.411-2.358l-0.03,0.005l30.208,30.208
	c-1.441-1.819-2.434-4.018-2.434-6.522V266.667z M399.273,219.809l-0.04,0.013c3.747,3.846,6.1,9.065,6.1,14.845
	c0,11.76-9.573,21.333-21.333,21.333c-11.76,0-21.333-9.573-21.333-21.333c0-9.919,6.951-17.906,16.141-20.281l-40.596-40.596
	c1.93,1.93,3.122,4.596,3.122,7.544v149.333c0,5.896-4.771,10.667-10.667,10.667H181.333c-5.896,0-10.667-4.771-10.667-10.667
	V284.35l-33.526-33.526c0.884,1.555,1.526,3.258,1.526,5.176c0,5.896-4.771,10.667-10.667,10.667h-21.333V288
	c0,5.896-4.771,10.667-10.667,10.667c-2.504,0-4.703-0.992-6.522-2.434l66.434,66.434H384c42.708,0,79.372-25.396,96.395-61.737
	L399.273,219.809z"/>
<g>
	<circle style="fill:#303C42;" cx="384" cy="234.667" r="21.333"/>
	<circle style="fill:#303C42;" cx="426.667" cy="277.333" r="21.333"/>
</g>
<linearGradient id="SVGID_3_" gradientUnits="userSpaceOnUse" x1="-45.069" y1="639.3183" x2="-24.3373" y2="629.6505" gradientTransform="matrix(21.3333 0 0 -21.3333 996.3334 13791.667)">
	<stop  offset="0" style="stop-color:#FFFFFF;stop-opacity:0.2"/>
	<stop  offset="1" style="stop-color:#FFFFFF;stop-opacity:0"/>
</linearGradient>
<path style="fill:url(#SVGID_3_);" d="M384,128H128C57.417,128,0,185.417,0,256s57.417,128,128,128h256c70.583,0,128-57.417,128-128
	S454.583,128,384,128z"/>
<g>
</g>
<g>
</g>
<g>
</g>
<g>
</g>
<g>
</g>
<g>
</g>
<g>
</g>
<g>
</g>
<g>
</g>
<g>
</g>
<g>
</g>
<g>
</g>
<g>
</g>
<g>
</g>
<g>
</g>
</svg>
