<?xml version="1.0" encoding="iso-8859-1"?>
<!-- Generator: Adobe Illustrator 19.0.0, SVG Export Plug-In . SVG Version: 6.00 Build 0)  -->
<svg version="1.1" id="Capa_1" xmlns="http://www.w3.org/2000/svg" xmlns:xlink="http://www.w3.org/1999/xlink" x="0px" y="0px"
	 viewBox="0 0 512 512" style="enable-background:new 0 0 512 512;" xml:space="preserve">
<path style="fill:#303C42;" d="M440.677,42.667H213.333C95.698,42.667,0,138.365,0,256s95.698,213.333,213.333,213.333
	c81.833,0,157.104-47.656,192.417-121.615c0.396-0.531,0.75-1.104,1.042-1.708l97.979-200.74C509.5,135.573,512,124.76,512,113.99
	C512,74.667,480,42.667,440.677,42.667z"/>
<path style="fill:#FFA726;" d="M485.604,135.917l-96.979,198.688c-0.479,0.615-0.896,1.292-1.229,2.021
	C356,404.281,287.677,448,213.333,448c-105.865,0-192-86.135-192-192s86.135-192,192-192h227.344c27.563,0,49.99,22.427,49.99,49.99
	C490.667,121.531,488.917,129.115,485.604,135.917z"/>
<circle style="fill:#303C42;" cx="213.333" cy="256" r="170.667"/>
<circle style="fill:#FFFFFF;" cx="213.333" cy="256" r="149.333"/>
<path style="opacity:0.1;enable-background:new    ;" d="M313.292,145.375c23.967,26.5,38.708,61.497,38.708,99.958
	c0,82.344-66.99,149.333-149.333,149.333c-38.461,0-73.458-14.741-99.958-38.708c27.346,30.236,66.742,49.375,110.625,49.375
	c82.344,0,149.333-66.99,149.333-149.333C362.667,212.117,343.527,172.721,313.292,145.375z"/>
<linearGradient id="SVGID_1_" gradientUnits="userSpaceOnUse" x1="-36.7128" y1="634.3351" x2="-30.4264" y2="628.0488" gradientTransform="matrix(21.3333 0 0 -21.3333 996.3334 13791.667)">
	<stop  offset="0" style="stop-color:#000000;stop-opacity:0.1"/>
	<stop  offset="1" style="stop-color:#000000;stop-opacity:0"/>
</linearGradient>
<path style="fill:url(#SVGID_1_);" d="M358.965,167.306l-0.069,0.053C374.714,193.234,384,223.517,384,256
	c0,94.104-76.563,170.667-170.667,170.667c-46.296,0-88.285-18.594-119.063-48.626l60.896,60.896
	c18.362,5.853,37.891,9.064,58.167,9.064c74.344,0,142.667-43.719,174.063-111.375c0.333-0.729,0.75-1.406,1.229-2.021
	l45.146-92.492L358.965,167.306z"/>
<linearGradient id="SVGID_2_" gradientUnits="userSpaceOnUse" x1="-44.9469" y1="640.4671" x2="-26.6481" y2="631.9374" gradientTransform="matrix(21.3333 0 0 -21.3333 996.3334 13791.667)">
	<stop  offset="0" style="stop-color:#FFFFFF;stop-opacity:0.2"/>
	<stop  offset="1" style="stop-color:#FFFFFF;stop-opacity:0"/>
</linearGradient>
<path style="fill:url(#SVGID_2_);" d="M440.677,42.667H213.333C95.698,42.667,0,138.365,0,256s95.698,213.333,213.333,213.333
	c81.833,0,157.104-47.656,192.417-121.615c0.396-0.531,0.75-1.104,1.042-1.708l97.979-200.74C509.5,135.573,512,124.76,512,113.99
	C512,74.667,480,42.667,440.677,42.667z"/>
<g>
</g>
<g>
</g>
<g>
</g>
<g>
</g>
<g>
</g>
<g>
</g>
<g>
</g>
<g>
</g>
<g>
</g>
<g>
</g>
<g>
</g>
<g>
</g>
<g>
</g>
<g>
</g>
<g>
</g>
</svg>
