<?xml version="1.0" encoding="iso-8859-1"?>
<!-- Generator: Adobe Illustrator 19.0.0, SVG Export Plug-In . SVG Version: 6.00 Build 0)  -->
<svg version="1.1" id="Capa_1" xmlns="http://www.w3.org/2000/svg" xmlns:xlink="http://www.w3.org/1999/xlink" x="0px" y="0px"
	 viewBox="0 0 512 512" style="enable-background:new 0 0 512 512;" xml:space="preserve">
<path style="fill:#303C42;" d="M479.083,101.333l18.75-18.75C506.969,73.448,512,61.302,512,48.375C512,21.698,490.302,0,463.625,0
	c-12.927,0-25.073,5.031-34.208,14.167l-18.75,18.75L380.875,3.125c-2-2-4.708-3.125-7.542-3.125H192
	c-23.531,0-42.667,19.135-42.667,42.667S168.469,85.333,192,85.333h144.917L347.583,96L14.167,429.406
	C5.031,438.531,0,450.688,0,463.625C0,490.302,21.698,512,48.375,512c12.917,0,25.063-5.031,34.208-14.167L416,164.417
	l10.667,10.667V320c0,23.531,19.135,42.667,42.667,42.667S512,343.531,512,320V138.667c0-2.833-1.125-5.542-3.125-7.542
	L479.083,101.333z"/>
<g>
	<path style="fill:#8D6E63;" d="M444.5,29.25c5.104-5.104,11.896-7.917,19.125-7.917c14.906,0,27.042,12.135,27.042,27.042
		c0,7.229-2.813,14.021-7.917,19.125L464,86.25L425.75,48L444.5,29.25z"/>
	<path style="fill:#8D6E63;" d="M67.5,482.74c-5.115,5.115-11.906,7.927-19.125,7.927c-14.906,0-27.042-12.135-27.042-27.042
		c0-7.24,2.813-14.021,7.917-19.125l333.417-333.417l38.25,38.25L67.5,482.74z"/>
</g>
<path style="fill:#E6E6E6;" d="M490.667,320c0,11.76-9.573,21.333-21.333,21.333S448,331.76,448,320V170.667
	c0-2.833-1.125-5.542-3.125-7.542l-96-96c-2-2-4.708-3.125-7.542-3.125H192c-11.76,0-21.333-9.573-21.333-21.333
	S180.24,21.333,192,21.333h176.917l121.75,121.75V320z"/>
<path style="opacity:0.1;enable-background:new    ;" d="M444.875,67.125L464,86.25l18.75-18.75
	c5.104-5.104,7.917-11.896,7.917-19.125c0-7.453-3.034-14.214-7.931-19.111L444.875,67.125z"/>
<path style="opacity:0.1;enable-background:new    ;" d="M48.375,490.667c7.219,0,14.01-2.813,19.125-7.927l333.417-333.406
	l-19.125-19.125L29.264,482.736C34.161,487.633,40.922,490.667,48.375,490.667z"/>
<linearGradient id="SVGID_1_" gradientUnits="userSpaceOnUse" x1="-42.8097" y1="638.2634" x2="-23.5268" y2="629.2743" gradientTransform="matrix(21.3333 0 0 -21.3333 996.3334 13791.667)">
	<stop  offset="0" style="stop-color:#FFFFFF;stop-opacity:0.2"/>
	<stop  offset="1" style="stop-color:#FFFFFF;stop-opacity:0"/>
</linearGradient>
<path style="fill:url(#SVGID_1_);" d="M479.083,101.333l18.75-18.75C506.969,73.448,512,61.302,512,48.375
	C512,21.698,490.302,0,463.625,0c-12.927,0-25.073,5.031-34.208,14.167l-18.75,18.75L380.875,3.125c-2-2-4.708-3.125-7.542-3.125
	H192c-23.531,0-42.667,19.135-42.667,42.667S168.469,85.333,192,85.333h144.917L347.583,96L14.167,429.406
	C5.031,438.531,0,450.688,0,463.625C0,490.302,21.698,512,48.375,512c12.917,0,25.063-5.031,34.208-14.167L416,164.417
	l10.667,10.667V320c0,23.531,19.135,42.667,42.667,42.667S512,343.531,512,320V138.667c0-2.833-1.125-5.542-3.125-7.542
	L479.083,101.333z"/>
<g>
</g>
<g>
</g>
<g>
</g>
<g>
</g>
<g>
</g>
<g>
</g>
<g>
</g>
<g>
</g>
<g>
</g>
<g>
</g>
<g>
</g>
<g>
</g>
<g>
</g>
<g>
</g>
<g>
</g>
</svg>
