<?xml version="1.0" encoding="iso-8859-1"?>
<!-- Generator: Adobe Illustrator 19.0.0, SVG Export Plug-In . SVG Version: 6.00 Build 0)  -->
<svg version="1.1" id="Capa_1" xmlns="http://www.w3.org/2000/svg" xmlns:xlink="http://www.w3.org/1999/xlink" x="0px" y="0px"
	 viewBox="0 0 512 512" style="enable-background:new 0 0 512 512;" xml:space="preserve">
<path style="fill:#303C42;" d="M320,0H64C40.469,0,21.333,19.135,21.333,42.667v426.667C21.333,492.865,40.469,512,64,512h256
	c23.531,0,42.667-19.135,42.667-42.667V42.667C362.667,19.135,343.531,0,320,0z"/>
<path style="fill:#5C6671;" d="M64,21.333h256c11.76,0,21.333,9.573,21.333,21.333v362.667H42.667V42.667
	C42.667,30.906,52.24,21.333,64,21.333z"/>
<linearGradient id="SVGID_1_" gradientUnits="userSpaceOnUse" x1="-46.6714" y1="640.4843" x2="-28.5757" y2="632.0473" gradientTransform="matrix(21.3333 0 0 -21.3333 996.3334 13791.667)">
	<stop  offset="0" style="stop-color:#FFFFFF;stop-opacity:0.2"/>
	<stop  offset="1" style="stop-color:#FFFFFF;stop-opacity:0"/>
</linearGradient>
<path style="fill:url(#SVGID_1_);" d="M64,21.333h256c11.76,0,21.333,9.573,21.333,21.333v362.667H42.667V42.667
	C42.667,30.906,52.24,21.333,64,21.333z"/>
<path style="fill:#303C42;" d="M181.333,64h21.333c5.896,0,10.667-4.771,10.667-10.667s-4.771-10.667-10.667-10.667h-21.333
	c-5.896,0-10.667,4.771-10.667,10.667S175.438,64,181.333,64z"/>
<path style="fill:#F2F2F2;" d="M224,448h-64c-5.896,0-10.667,4.771-10.667,10.667c0,5.896,4.771,10.667,10.667,10.667h64
	c5.896,0,10.667-4.771,10.667-10.667C234.667,452.771,229.896,448,224,448z"/>
<g>
	<circle style="fill:#303C42;" cx="309.333" cy="53.333" r="10.667"/>
	<path style="fill:#303C42;" d="M288,341.333c19.292,0,37.958-7.719,51.938-21.333h24.125
		c13.979,13.615,32.646,21.333,51.938,21.333c41.167,0,74.667-33.5,74.667-74.667S457.167,192,416,192H288
		c-41.167,0-74.667,33.5-74.667,74.667S246.833,341.333,288,341.333z"/>
</g>
<path style="fill:#F2F2F2;" d="M288,213.333h128c29.417,0,53.333,23.927,53.333,53.333S445.417,320,416,320
	c-15.083,0-29.104-6.323-39.479-17.813c-2.021-2.24-4.896-3.521-7.917-3.521h-33.208c-3.021,0-5.896,1.281-7.917,3.521
	C317.104,313.677,303.083,320,288,320c-29.417,0-53.333-23.927-53.333-53.333S258.583,213.333,288,213.333z"/>
<g>
	<path style="fill:#303C42;" d="M266.667,277.333h10.667V288c0,5.896,4.771,10.667,10.667,10.667
		c5.896,0,10.667-4.771,10.667-10.667v-10.667h10.667c5.896,0,10.667-4.771,10.667-10.667c0-5.896-4.771-10.667-10.667-10.667
		h-10.667v-10.667c0-5.896-4.771-10.667-10.667-10.667c-5.896,0-10.667,4.771-10.667,10.667V256h-10.667
		c-5.896,0-10.667,4.771-10.667,10.667C256,272.563,260.771,277.333,266.667,277.333z"/>
	<circle style="fill:#303C42;" cx="416" cy="245.333" r="10.667"/>
	<circle style="fill:#303C42;" cx="394.667" cy="266.667" r="10.667"/>
	<circle style="fill:#303C42;" cx="437.333" cy="266.667" r="10.667"/>
	<circle style="fill:#303C42;" cx="416" cy="288" r="10.667"/>
</g>
<linearGradient id="SVGID_2_" gradientUnits="userSpaceOnUse" x1="-48.2743" y1="639.4141" x2="-25.7153" y2="628.894" gradientTransform="matrix(21.3333 0 0 -21.3333 996.3334 13791.667)">
	<stop  offset="0" style="stop-color:#FFFFFF;stop-opacity:0.2"/>
	<stop  offset="1" style="stop-color:#FFFFFF;stop-opacity:0"/>
</linearGradient>
<path style="fill:url(#SVGID_2_);" d="M416,192h-53.333V42.667C362.667,19.135,343.531,0,320,0H64
	C40.469,0,21.333,19.135,21.333,42.667v426.667C21.333,492.865,40.469,512,64,512h256c23.531,0,42.667-19.135,42.667-42.667V320
	h1.396c13.979,13.615,32.646,21.333,51.938,21.333c41.167,0,74.667-33.5,74.667-74.667S457.167,192,416,192z"/>
<g>
</g>
<g>
</g>
<g>
</g>
<g>
</g>
<g>
</g>
<g>
</g>
<g>
</g>
<g>
</g>
<g>
</g>
<g>
</g>
<g>
</g>
<g>
</g>
<g>
</g>
<g>
</g>
<g>
</g>
</svg>
