<?xml version="1.0" encoding="iso-8859-1"?>
<!-- Generator: Adobe Illustrator 19.0.0, SVG Export Plug-In . SVG Version: 6.00 Build 0)  -->
<svg version="1.1" id="Capa_1" xmlns="http://www.w3.org/2000/svg" xmlns:xlink="http://www.w3.org/1999/xlink" x="0px" y="0px"
	 viewBox="0 0 512 512" style="enable-background:new 0 0 512 512;" xml:space="preserve">
<path style="fill:#303C42;" d="M394.667,320h-33.264c27.243-13.457,43.931-32.237,43.931-53.333c0-17.646-14.354-32-32-32
	c-44.497,0-83.723,17.135-106.667,43.048v-43.499C332.266,229.675,384,183.813,384,128c0-21.904-8.525-42.987-23.432-60.801
	l12.682-11.271c6.396-5.677,10.188-13.509,10.688-22.039s-2.354-16.749-8.021-23.133C364.209-2.44,343.938-3.617,330.75,8.101
	L256,74.53L181.271,8.111c-6.375-5.707-14.688-8.572-23.167-8.051c-8.542,0.51-16.375,4.312-22.021,10.697
	c-5.667,6.384-8.521,14.603-8.021,23.133c0.5,8.53,4.292,16.362,10.688,22.039l12.682,11.272C136.525,85.015,128,106.097,128,128
	c0,55.813,51.734,101.674,117.333,106.216v43.499c-22.944-25.913-62.169-43.048-106.667-43.048c-17.646,0-32,14.354-32,32
	c0,21.096,16.688,39.876,43.931,53.333h-33.264c-5.896,0-10.667,4.771-10.667,10.667V416c0,5.896,4.771,10.667,10.667,10.667H128
	v74.667c0,5.896,4.771,10.667,10.667,10.667h234.667c5.896,0,10.667-4.771,10.667-10.667v-74.667h10.667
	c5.896,0,10.667-4.771,10.667-10.667v-85.333C405.334,324.771,400.563,320,394.667,320z"/>
<path style="fill:#9CCC65;" d="M373.334,256c5.875,0,10.667,4.781,10.667,10.667c0,23.885-47.146,50.365-116.208,53.104
	C275.354,283.74,319.813,256,373.334,256z"/>
<path style="fill:#FFFFFF;" d="M152.063,24.901c1.875-2.115,4.458-3.375,7.313-3.542c0.208-0.021,0.417-0.021,0.625-0.021
	c2.625,0,5.104,0.938,7.083,2.698l81.833,72.73c4.042,3.603,10.125,3.603,14.167,0l81.833-72.73
	c4.354-3.917,11.104-3.51,15.042,0.885c1.896,2.134,2.854,4.874,2.688,7.717c-0.167,2.844-1.438,5.457-3.563,7.353l-96,85.323
	c-3.917,3.458-10.25,3.458-14.167,0l-96-85.323c-2.125-1.896-3.396-4.509-3.563-7.353C149.188,29.796,150.146,27.056,152.063,24.901
	z"/>
<path style="fill:#E53935;" d="M149.334,128c0-16.645,6.522-32.828,17.956-46.706l67.461,59.957
	c5.854,5.207,13.396,8.082,21.25,8.082c7.854,0,15.396-2.875,21.25-8.082l67.461-59.957c11.434,13.878,17.956,30.061,17.956,46.706
	c0,47.052-47.854,85.333-106.667,85.333S149.334,175.053,149.334,128z"/>
<path style="opacity:0.1;enable-background:new    ;" d="M344.711,81.295l-5.109,4.54c1.044,4.676,1.732,9.408,1.732,14.204
	c0,47.052-47.854,85.333-106.667,85.333c-31.102,0-58.879-10.889-78.395-27.936c15.061,32.529,53.897,55.897,99.728,55.897
	c58.813,0,106.667-38.281,106.667-85.333C362.667,111.356,356.145,95.172,344.711,81.295z"/>
<path style="fill:#9CCC65;" d="M128,266.667c0-5.885,4.792-10.667,10.667-10.667c53.521,0,97.979,27.74,105.542,63.771
	C175.146,317.032,128,290.553,128,266.667z"/>
<path style="opacity:0.1;enable-background:new    ;" d="M379.369,258.114c-12.132,18.589-49.72,35.755-101.452,39.702
	c-4.824,6.833-8.486,14.145-10.125,21.956C336.854,317.032,384,290.553,384,266.667C384,263.073,382.099,260.047,379.369,258.114z"
	/>
<path style="opacity:0.1;enable-background:new    ;" d="M132.632,258.114c-2.729,1.934-4.632,4.96-4.632,8.553
	c0,23.885,47.146,50.365,116.208,53.104c-1.639-7.811-5.299-15.122-10.124-21.956C182.353,293.869,144.763,276.702,132.632,258.114z
	"/>
<rect x="149.334" y="426.667" style="fill:#689F38;" width="213.333" height="64"/>
<rect x="128" y="341.334" style="fill:#7CB342;" width="256" height="64"/>
<g>
	<rect x="181.334" y="341.334" style="opacity:0.1;fill:#FFFFFF;enable-background:new    ;" width="29.867" height="64"/>
	<rect x="211.2" y="341.334" style="opacity:0.2;fill:#FFFFFF;enable-background:new    ;" width="44.8" height="64"/>
	<rect x="170.667" y="426.667" style="opacity:0.1;fill:#FFFFFF;enable-background:new    ;" width="25.6" height="64"/>
	<rect x="196.267" y="426.667" style="opacity:0.2;fill:#FFFFFF;enable-background:new    ;" width="38.4" height="64"/>
</g>
<g>
	<path style="fill:#303C42;" d="M277.334,181.334c0-11.76-9.563-21.333-21.333-21.333s-21.333,9.573-21.333,21.333
		s9.563,21.333,21.333,21.333S277.334,193.094,277.334,181.334z"/>
	<path style="fill:#303C42;" d="M320,170.667c11.771,0,21.333-9.573,21.333-21.333S331.771,128,320,128s-21.333,9.573-21.333,21.333
		S308.229,170.667,320,170.667z"/>
	<path style="fill:#303C42;" d="M192,128c-11.771,0-21.333,9.573-21.333,21.333s9.563,21.333,21.333,21.333
		c11.771,0,21.333-9.573,21.333-21.333S203.771,128,192,128z"/>
</g>
<linearGradient id="SVGID_1_" gradientUnits="userSpaceOnUse" x1="-43.8501" y1="638.5683" x2="-25.3968" y2="629.9631" gradientTransform="matrix(21.3333 0 0 -21.3333 996.3286 13791.6719)">
	<stop  offset="0" style="stop-color:#FFFFFF;stop-opacity:0.2"/>
	<stop  offset="1" style="stop-color:#FFFFFF;stop-opacity:0"/>
</linearGradient>
<path style="fill:url(#SVGID_1_);" d="M394.667,320h-33.264c27.243-13.457,43.931-32.237,43.931-53.333c0-17.646-14.354-32-32-32
	c-44.497,0-83.723,17.135-106.667,43.048v-43.499C332.266,229.675,384,183.813,384,128c0-21.904-8.525-42.987-23.432-60.801
	l12.682-11.271c6.396-5.677,10.188-13.509,10.688-22.039s-2.354-16.749-8.021-23.133C364.209-2.44,343.938-3.617,330.75,8.101
	L256,74.53L181.271,8.111c-6.375-5.707-14.688-8.572-23.167-8.051c-8.542,0.51-16.375,4.312-22.021,10.697
	c-5.667,6.384-8.521,14.603-8.021,23.133c0.5,8.53,4.292,16.362,10.688,22.039l12.682,11.272C136.525,85.015,128,106.097,128,128
	c0,55.813,51.734,101.674,117.333,106.216v43.499c-22.944-25.913-62.169-43.048-106.667-43.048c-17.646,0-32,14.354-32,32
	c0,21.096,16.688,39.876,43.931,53.333h-33.264c-5.896,0-10.667,4.771-10.667,10.667V416c0,5.896,4.771,10.667,10.667,10.667H128
	v74.667c0,5.896,4.771,10.667,10.667,10.667h234.667c5.896,0,10.667-4.771,10.667-10.667v-74.667h10.667
	c5.896,0,10.667-4.771,10.667-10.667v-85.333C405.334,324.771,400.563,320,394.667,320z"/>
<g>
</g>
<g>
</g>
<g>
</g>
<g>
</g>
<g>
</g>
<g>
</g>
<g>
</g>
<g>
</g>
<g>
</g>
<g>
</g>
<g>
</g>
<g>
</g>
<g>
</g>
<g>
</g>
<g>
</g>
</svg>
