<?xml version="1.0" encoding="iso-8859-1"?>
<!-- Generator: Adobe Illustrator 19.0.0, SVG Export Plug-In . SVG Version: 6.00 Build 0)  -->
<svg version="1.1" id="Capa_1" xmlns="http://www.w3.org/2000/svg" xmlns:xlink="http://www.w3.org/1999/xlink" x="0px" y="0px"
	 viewBox="0 0 512 512" style="enable-background:new 0 0 512 512;" xml:space="preserve">
<path style="fill:#303C42;" d="M382.958,251.141L265.625,5.568c-3.542-7.424-15.708-7.424-19.25,0L129.042,251.141
	c-1.396,2.92-1.396,6.298,0,9.217l117.333,245.573c1.771,3.712,5.521,6.068,9.625,6.068c4.104,0,7.854-2.356,9.625-6.068
	l117.333-245.573C384.354,257.439,384.354,254.061,382.958,251.141z"/>
<polygon style="fill:#AED581;" points="215.902,245.333 256,60.859 296.098,245.333 "/>
<polygon style="fill:#9CCC65;" points="296.098,266.667 256,451.141 215.902,266.667 "/>
<polygon style="fill:#7CB342;" points="194.076,245.333 155.6,245.333 226.143,97.819 "/>
<g>
	<polygon style="fill:#689F38;" points="194.076,266.667 226.143,414.181 155.6,266.667 	"/>
	<polygon style="fill:#689F38;" points="317.924,266.667 356.4,266.667 285.857,414.181 	"/>
</g>
<polygon style="fill:#7CB342;" points="317.924,245.333 285.857,97.819 356.4,245.333 "/>
<linearGradient id="SVGID_1_" gradientUnits="userSpaceOnUse" x1="-39.6766" y1="636.808" x2="-29.7359" y2="632.1708" gradientTransform="matrix(21.3333 0 0 -21.3333 996.3333 13791.667)">
	<stop  offset="0" style="stop-color:#FFFFFF;stop-opacity:0.2"/>
	<stop  offset="1" style="stop-color:#FFFFFF;stop-opacity:0"/>
</linearGradient>
<path style="fill:url(#SVGID_1_);" d="M382.958,251.141L265.625,5.568c-3.542-7.424-15.708-7.424-19.25,0L129.042,251.141
	c-1.396,2.92-1.396,6.298,0,9.217l117.333,245.573c1.771,3.712,5.521,6.068,9.625,6.068c4.104,0,7.854-2.356,9.625-6.068
	l117.333-245.573C384.354,257.439,384.354,254.061,382.958,251.141z"/>
<g>
</g>
<g>
</g>
<g>
</g>
<g>
</g>
<g>
</g>
<g>
</g>
<g>
</g>
<g>
</g>
<g>
</g>
<g>
</g>
<g>
</g>
<g>
</g>
<g>
</g>
<g>
</g>
<g>
</g>
</svg>
