<?xml version="1.0" encoding="iso-8859-1"?>
<!-- Generator: Adobe Illustrator 19.0.0, SVG Export Plug-In . SVG Version: 6.00 Build 0)  -->
<svg version="1.1" id="Capa_1" xmlns="http://www.w3.org/2000/svg" xmlns:xlink="http://www.w3.org/1999/xlink" x="0px" y="0px"
	 viewBox="0 0 512 512" style="enable-background:new 0 0 512 512;" xml:space="preserve">
<path style="fill:#303C42;" d="M256,0C114.833,0,0,114.844,0,256s114.833,256,256,256s256-114.844,256-256S397.167,0,256,0z
	 M69.854,302.323l123.688,11.771c1.417,1.5,2.854,2.958,4.354,4.354l11.771,123.698C140.896,425.094,86.896,371.094,69.854,302.323z
	 M193.542,197.906L69.833,209.677C90.833,124.469,167,64,256,64s165.167,60.469,186.167,145.677l-123.708-11.771
	c-15.604-16.75-37.833-27.24-62.458-27.24S209.146,181.156,193.542,197.906z M302.333,442.146l11.771-123.698
	c1.5-1.396,2.938-2.854,4.354-4.354l123.688-11.771C425.104,371.094,371.104,425.094,302.333,442.146z"/>
<path style="fill:#90A4AE;" d="M256,21.333C126.604,21.333,21.333,126.604,21.333,256S126.604,490.667,256,490.667
	S490.667,385.396,490.667,256S385.396,21.333,256,21.333z M292.125,466.052c-0.583,0.104-1.188,0.156-1.792,0.156
	c-2.667,0-5.271-1-7.25-2.844c-2.438-2.26-3.688-5.531-3.375-8.833l11.5-120.802c-21.458,9.771-48.958,9.771-70.417,0l11.5,120.802
	c0.313,3.302-0.938,6.573-3.375,8.833s-5.917,3.219-9.042,2.688c-88.854-15.188-158.75-85.083-173.938-173.927
	c-0.563-3.271,0.438-6.615,2.708-9.052c2.25-2.417,5.375-3.635,8.833-3.354l120.792,11.49c-4.875-10.74-7.604-22.656-7.604-35.208
	c0-12.552,2.729-24.469,7.604-35.208l-120.792,11.49c-3.458,0.375-6.583-0.927-8.833-3.354c-2.271-2.438-3.271-5.781-2.708-9.063
	C63.5,117.188,151.833,42.667,256,42.667s192.5,74.521,210.063,177.198c0.563,3.281-0.438,6.625-2.708,9.063
	c-2.25,2.427-5.292,3.708-8.833,3.354l-120.792-11.49c4.875,10.74,7.604,22.656,7.604,35.208c0,12.552-2.729,24.469-7.604,35.208
	l120.792-11.49c3.563-0.26,6.583,0.938,8.833,3.354c2.271,2.438,3.271,5.781,2.708,9.052
	C450.875,380.969,380.979,450.865,292.125,466.052z"/>
<path style="opacity:0.1;enable-background:new    ;" d="M289.898,347.484l1.31-13.755c-21.458,9.771-48.958,9.771-70.417,0
	l1.31,13.755C242.954,356.518,269.046,356.518,289.898,347.484z"/>
<circle style="fill:#90A4AE;" cx="256" cy="256" r="64"/>
<path style="opacity:0.1;enable-background:new    ;" d="M306.642,217.316c1.577,5.555,2.691,11.297,2.691,17.35
	c0,35.292-28.708,64-64,64c-20.695,0-38.935-10.033-50.641-25.315C202.313,300.18,226.762,320,256,320c35.292,0,64-28.708,64-64
	C320,241.404,314.898,228.095,306.642,217.316z"/>
<linearGradient id="SVGID_1_" gradientUnits="userSpaceOnUse" x1="-45.5785" y1="639.5551" x2="-23.8277" y2="629.4137" gradientTransform="matrix(21.3333 0 0 -21.3333 996.3334 13791.667)">
	<stop  offset="0" style="stop-color:#FFFFFF;stop-opacity:0.2"/>
	<stop  offset="1" style="stop-color:#FFFFFF;stop-opacity:0"/>
</linearGradient>
<path style="fill:url(#SVGID_1_);" d="M256,0C114.833,0,0,114.844,0,256s114.833,256,256,256s256-114.844,256-256S397.167,0,256,0z
	 M69.854,302.323l123.688,11.771c1.417,1.5,2.854,2.958,4.354,4.354l11.771,123.698C140.896,425.094,86.896,371.094,69.854,302.323z
	 M193.542,197.906L69.833,209.677C90.833,124.469,167,64,256,64s165.167,60.469,186.167,145.677l-123.708-11.771
	c-15.604-16.75-37.833-27.24-62.458-27.24S209.146,181.156,193.542,197.906z M302.333,442.146l11.771-123.698
	c1.5-1.396,2.938-2.854,4.354-4.354l123.688-11.771C425.104,371.094,371.104,425.094,302.333,442.146z"/>
<g>
</g>
<g>
</g>
<g>
</g>
<g>
</g>
<g>
</g>
<g>
</g>
<g>
</g>
<g>
</g>
<g>
</g>
<g>
</g>
<g>
</g>
<g>
</g>
<g>
</g>
<g>
</g>
<g>
</g>
</svg>
