<?xml version="1.0" encoding="iso-8859-1"?>
<!-- Generator: Adobe Illustrator 19.0.0, SVG Export Plug-In . SVG Version: 6.00 Build 0)  -->
<svg version="1.1" id="Capa_1" xmlns="http://www.w3.org/2000/svg" xmlns:xlink="http://www.w3.org/1999/xlink" x="0px" y="0px"
	 viewBox="0 0 512 512" style="enable-background:new 0 0 512 512;" xml:space="preserve">
<path style="fill:#303C42;" d="M405.333,0H106.667C83.146,0,64,19.135,64,42.667v426.667C64,492.865,83.146,512,106.667,512h298.667
	C428.854,512,448,492.865,448,469.333V42.667C448,19.135,428.854,0,405.333,0z"/>
<g>
	<path id="SVGCleanerId_0" style="fill:#5C6671;" d="M106.667,21.333h298.667c11.771,0,21.333,9.573,21.333,21.333V384H85.333
		V42.667C85.333,30.906,94.896,21.333,106.667,21.333z"/>
</g>
<g>
	
		<linearGradient id="SVGCleanerId_0_3_" gradientUnits="userSpaceOnUse" x1="-44.3014" y1="641.2784" x2="-24.9458" y2="632.2532" gradientTransform="matrix(21.3333 0 0 -21.3333 996.3334 13791.667)">
		<stop  offset="0" style="stop-color:#FFFFFF;stop-opacity:0.2"/>
		<stop  offset="1" style="stop-color:#FFFFFF;stop-opacity:0"/>
	</linearGradient>
	<path id="SVGCleanerId_0_1_" style="fill:url(#SVGCleanerId_0_3_);" d="M106.667,21.333h298.667
		c11.771,0,21.333,9.573,21.333,21.333V384H85.333V42.667C85.333,30.906,94.896,21.333,106.667,21.333z"/>
</g>
<g>
	
		<linearGradient id="SVGCleanerId_0_4_" gradientUnits="userSpaceOnUse" x1="-42.8056" y1="644.7957" x2="-26.6007" y2="628.5867" gradientTransform="matrix(21.3333 0 0 -21.3333 996.3334 13791.667)">
		<stop  offset="0" style="stop-color:#FFFFFF;stop-opacity:0.2"/>
		<stop  offset="1" style="stop-color:#FFFFFF;stop-opacity:0"/>
	</linearGradient>
	<path id="SVGCleanerId_0_2_" style="fill:url(#SVGCleanerId_0_4_);" d="M106.667,21.333h298.667
		c11.771,0,21.333,9.573,21.333,21.333V384H85.333V42.667C85.333,30.906,94.896,21.333,106.667,21.333z"/>
</g>
<circle style="fill:#F2F2F2;" cx="256" cy="448" r="21.333"/>
<g>
	<circle style="fill:#303C42;" cx="394.667" cy="53.333" r="10.667"/>
	<path style="fill:#303C42;" d="M192,298.667c19.292,0,37.958-7.719,51.938-21.333h24.125
		c13.979,13.615,32.646,21.333,51.938,21.333c41.167,0,74.667-33.5,74.667-74.667s-33.5-74.667-74.667-74.667H192
		c-41.167,0-74.667,33.5-74.667,74.667S150.833,298.667,192,298.667z"/>
</g>
<path style="fill:#F2F2F2;" d="M192,170.667h128c29.417,0,53.333,23.927,53.333,53.333S349.417,277.333,320,277.333
	c-15.083,0-29.104-6.323-39.479-17.813c-2.021-2.24-4.896-3.521-7.917-3.521h-33.208c-3.021,0-5.896,1.281-7.917,3.521
	c-10.375,11.49-24.396,17.813-39.479,17.813c-29.417,0-53.333-23.927-53.333-53.333S162.583,170.667,192,170.667z"/>
<g>
	<path style="fill:#303C42;" d="M170.667,234.667h10.667v10.667c0,5.896,4.771,10.667,10.667,10.667
		c5.896,0,10.667-4.771,10.667-10.667v-10.667h10.667c5.896,0,10.667-4.771,10.667-10.667c0-5.896-4.771-10.667-10.667-10.667
		h-10.667v-10.667c0-5.896-4.771-10.667-10.667-10.667c-5.896,0-10.667,4.771-10.667,10.667v10.667h-10.667
		c-5.896,0-10.667,4.771-10.667,10.667C160,229.896,164.771,234.667,170.667,234.667z"/>
	<circle style="fill:#303C42;" cx="320" cy="202.667" r="10.667"/>
	<circle style="fill:#303C42;" cx="298.667" cy="224" r="10.667"/>
	<circle style="fill:#303C42;" cx="341.333" cy="224" r="10.667"/>
	<circle style="fill:#303C42;" cx="320" cy="245.333" r="10.667"/>
</g>
<linearGradient id="SVGID_1_" gradientUnits="userSpaceOnUse" x1="-46.0956" y1="639.7964" x2="-23.3106" y2="629.1724" gradientTransform="matrix(21.3333 0 0 -21.3333 996.3334 13791.667)">
	<stop  offset="0" style="stop-color:#FFFFFF;stop-opacity:0.2"/>
	<stop  offset="1" style="stop-color:#FFFFFF;stop-opacity:0"/>
</linearGradient>
<path style="fill:url(#SVGID_1_);" d="M405.333,0H106.667C83.146,0,64,19.135,64,42.667v426.667C64,492.865,83.146,512,106.667,512
	h298.667C428.854,512,448,492.865,448,469.333V42.667C448,19.135,428.854,0,405.333,0z"/>
<g>
</g>
<g>
</g>
<g>
</g>
<g>
</g>
<g>
</g>
<g>
</g>
<g>
</g>
<g>
</g>
<g>
</g>
<g>
</g>
<g>
</g>
<g>
</g>
<g>
</g>
<g>
</g>
<g>
</g>
</svg>
