<?xml version="1.0" encoding="iso-8859-1"?>
<!-- Generator: Adobe Illustrator 19.0.0, SVG Export Plug-In . SVG Version: 6.00 Build 0)  -->
<svg version="1.1" id="Capa_1" xmlns="http://www.w3.org/2000/svg" xmlns:xlink="http://www.w3.org/1999/xlink" x="0px" y="0px"
	 viewBox="0 0 512.001 512.001" style="enable-background:new 0 0 512.001 512.001;" xml:space="preserve">
<path style="fill:#303C42;" d="M493.792,94.219l-76.5-76.589c-23.5-23.508-64.417-23.508-87.917,0L18.209,329.161
	C6.459,340.904,0,356.537,0,373.171s6.458,32.267,18.208,44.01l76.5,76.589c11.75,11.754,27.375,18.23,43.958,18.23
	s32.208-6.477,43.958-18.23l311.167-311.531C505.542,170.497,512,154.864,512,138.23S505.542,105.963,493.792,94.219z"/>
<path style="fill:#F2F2F2;" d="M478.709,167.139L167.542,478.67c-15.458,15.435-42.292,15.435-57.75,0l-76.5-76.59
	c-7.708-7.717-11.958-17.979-11.958-28.909s4.25-21.191,11.958-28.909L344.459,32.731c7.729-7.717,17.979-11.973,28.875-11.973
	c10.896,0,21.146,4.255,28.875,11.973l76.5,76.59c7.708,7.717,11.958,17.979,11.958,28.909S486.417,159.421,478.709,167.139z"/>
<path style="fill:#303C42;" d="M423.542,109.792l-21.333-21.333c-4.167-4.167-10.917-4.167-15.083,0l-13.792,13.792l-13.792-13.792
	c-4.167-4.167-10.917-4.167-15.083,0l-21.333,21.333c-4.167,4.167-4.167,10.917,0,15.083l13.792,13.792l-13.792,13.792
	c-4.167,4.167-4.167,10.917,0,15.083l21.333,21.333c4.167,4.167,10.917,4.167,15.083,0l13.792-13.792l13.792,13.792
	c2.083,2.083,4.813,3.125,7.542,3.125c2.729,0,5.458-1.042,7.542-3.125l21.333-21.333c4.167-4.167,4.167-10.917,0-15.083
	l-13.792-13.792l13.792-13.792C427.709,120.709,427.709,113.959,423.542,109.792z"/>
<path style="fill:#F2F2F2;" d="M387.125,146.209l13.792,13.792l-6.25,6.25l-13.792-13.792c-2.083-2.083-4.813-3.125-7.542-3.125
	c-2.729,0-5.458,1.042-7.542,3.125L352,166.251l-6.25-6.25l13.792-13.792c4.167-4.167,4.167-10.917,0-15.083l-13.792-13.792
	l6.25-6.25l13.792,13.792c4.167,4.167,10.917,4.167,15.083,0l13.792-13.792l6.25,6.25l-13.792,13.792
	C382.959,135.292,382.959,142.042,387.125,146.209z"/>
<circle style="fill:#303C42;" cx="277.334" cy="234.667" r="42.667"/>
<circle style="fill:#F2F2F2;" cx="277.334" cy="234.667" r="21.333"/>
<circle style="fill:#303C42;" cx="192" cy="320" r="21.333"/>
<linearGradient id="SVGID_1_" gradientUnits="userSpaceOnUse" x1="-37.7005" y1="631.4821" x2="-34.5585" y2="628.332" gradientTransform="matrix(21.3333 0 0 -21.3333 996.3267 13791.6748)">
	<stop  offset="0" style="stop-color:#000000;stop-opacity:0.1"/>
	<stop  offset="1" style="stop-color:#000000;stop-opacity:0"/>
</linearGradient>
<path style="fill:url(#SVGID_1_);" d="M207.982,306.015l-0.102,0.095c3.283,3.754,5.453,8.525,5.453,13.891
	c0,11.76-9.563,21.333-21.333,21.333c-5.867,0-11.178-2.385-15.038-6.228l-0.004,0.004l67.027,67.027l30.04-30.077L207.982,306.015z
	"/>
<linearGradient id="SVGID_2_" gradientUnits="userSpaceOnUse" x1="-33.6389" y1="635.4236" x2="-30.5599" y2="632.3445" gradientTransform="matrix(21.3333 0 0 -21.3333 996.3267 13791.6748)">
	<stop  offset="0" style="stop-color:#000000;stop-opacity:0.1"/>
	<stop  offset="1" style="stop-color:#000000;stop-opacity:0"/>
</linearGradient>
<path style="fill:url(#SVGID_2_);" d="M308.696,205.973c6.953,7.592,11.305,17.609,11.305,28.694
	c0,23.531-19.146,42.667-42.667,42.667c-10.762,0-20.493-4.138-28.009-10.738l65.06,65.06l59.962-60.033L308.696,205.973z"/>
<linearGradient id="SVGID_3_" gradientUnits="userSpaceOnUse" x1="-28.7028" y1="639.4847" x2="-26.0636" y2="636.8455" gradientTransform="matrix(21.3333 0 0 -21.3333 996.3267 13791.6748)">
	<stop  offset="0" style="stop-color:#000000;stop-opacity:0.1"/>
	<stop  offset="1" style="stop-color:#000000;stop-opacity:0"/>
</linearGradient>
<path style="fill:url(#SVGID_3_);" d="M423.542,109.792c4.167,4.167,4.167,10.917,0,15.083l-13.792,13.792l13.792,13.792
	c4.167,4.167,4.167,10.917,0,15.083l-21.333,21.333c-2.083,2.083-4.813,3.125-7.542,3.125c-2.729,0-5.458-1.042-7.542-3.125
	l-13.792-13.792l-13.792,13.792c-4.167,4.167-10.917,4.167-15.083,0l56.302,56.302l77.948-78.039c0.37-0.37,0.629-0.815,0.983-1.197
	L423.542,109.792z"/>
<linearGradient id="SVGID_4_" gradientUnits="userSpaceOnUse" x1="-42.7033" y1="638.2219" x2="-26.7079" y2="630.7637" gradientTransform="matrix(21.3333 0 0 -21.3333 996.3267 13791.6748)">
	<stop  offset="0" style="stop-color:#FFFFFF;stop-opacity:0.2"/>
	<stop  offset="1" style="stop-color:#FFFFFF;stop-opacity:0"/>
</linearGradient>
<path style="fill:url(#SVGID_4_);" d="M493.792,94.219l-76.5-76.589c-23.5-23.508-64.417-23.508-87.917,0L18.209,329.161
	C6.459,340.904,0,356.537,0,373.171s6.458,32.267,18.208,44.01l76.5,76.589c11.75,11.754,27.375,18.23,43.958,18.23
	s32.208-6.477,43.958-18.23l311.167-311.531C505.542,170.497,512,154.864,512,138.23S505.542,105.963,493.792,94.219z"/>
<g>
</g>
<g>
</g>
<g>
</g>
<g>
</g>
<g>
</g>
<g>
</g>
<g>
</g>
<g>
</g>
<g>
</g>
<g>
</g>
<g>
</g>
<g>
</g>
<g>
</g>
<g>
</g>
<g>
</g>
</svg>
