<?xml version="1.0" encoding="iso-8859-1"?>
<!-- Generator: Adobe Illustrator 19.0.0, SVG Export Plug-In . SVG Version: 6.00 Build 0)  -->
<svg version="1.1" id="Capa_1" xmlns="http://www.w3.org/2000/svg" xmlns:xlink="http://www.w3.org/1999/xlink" x="0px" y="0px"
	 viewBox="0 0 512 512" style="enable-background:new 0 0 512 512;" xml:space="preserve">
<path style="fill:#303C42;" d="M512,256c0-52.169-15.763-100.691-42.667-141.203V53.333c0-5.896-4.771-10.667-10.667-10.667h-61.464
	C356.693,15.764,308.172,0,256,0S155.307,15.764,114.797,42.667H53.333c-5.896,0-10.667,4.771-10.667,10.667v61.464
	C15.763,155.309,0,203.831,0,256s15.763,100.691,42.667,141.203v61.464c0,5.896,4.771,10.667,10.667,10.667h61.464
	C155.307,496.236,203.828,512,256,512s100.693-15.764,141.203-42.667h61.464c5.896,0,10.667-4.771,10.667-10.667v-61.464
	C496.237,356.691,512,308.169,512,256z"/>
<path style="fill:#0288D1;" d="M21.333,256C21.333,126.604,126.604,21.333,256,21.333S490.667,126.604,490.667,256
	S385.396,490.667,256,490.667S21.333,385.396,21.333,256z"/>
<path style="opacity:0.1;enable-background:new    ;" d="M35.556,276.444c0-129.396,105.271-234.667,234.667-234.667
	c75.158,0,142.001,35.655,184.98,90.784C413.759,65.927,340.081,21.333,256,21.333C126.604,21.333,21.333,126.604,21.333,256
	c0,54.238,18.671,104.098,49.686,143.883C48.682,363.97,35.556,321.759,35.556,276.444z"/>
<path style="fill:#303C42;" d="M426.354,114.854c-1.146-4.802-5.417-8.188-10.354-8.188h-85.333c-4.375,0-8.292,2.698-9.896,6.76
	c-1.604,4.073-0.542,8.729,2.646,11.729c1.875,1.76,7.25,8.042,7.25,13.292c-0.5,8.021-16.708,75.583-31.417,135.042
	l-32.833-147.802c-1.084-4.885-5.417-8.354-10.417-8.354s-9.334,3.469-10.417,8.354L212.75,273.5
	c-14.708-59.458-30.917-126.99-31.417-134.833c0-5.469,5.375-11.75,7.208-13.469c3.25-2.979,4.333-7.635,2.729-11.729
	c-1.583-4.104-5.542-6.802-9.938-6.802H96c-4.938,0-9.208,3.385-10.354,8.188c-1.146,4.792,1.146,9.76,5.542,12
	c3.479,1.771,13.146,8.052,16.25,15.771c6.521,16.313,62.083,228.719,63.229,241.302c-0.313,3.896-8.938,15.531-18.083,24.417
	c-3.125,3.021-4.104,7.635-2.458,11.667c1.625,4.021,5.542,6.656,9.875,6.656h74.667c3.021,0,5.896-1.281,7.917-3.521
	c2.021-2.25,3-5.25,2.688-8.25c-1.479-14.344-2.083-33.094-0.417-38.385c1.625-5.208,6.458-24.479,11.146-43.469
	c4.688,18.99,9.521,38.26,11.146,43.469c1.667,5.281,1.063,24.042-0.417,38.385c-0.313,3,0.667,6,2.688,8.25
	c2.021,2.24,4.896,3.521,7.917,3.521H352c4.333,0,8.25-2.635,9.875-6.656c1.646-4.031,0.667-8.646-2.458-11.667
	c-9.146-8.885-17.771-20.521-18.104-23.938c1.167-13.063,56.729-225.469,63.25-241.781c3.104-7.719,12.771-14,16.25-15.771
	C425.208,124.615,427.5,119.646,426.354,114.854z"/>
<g>
	<path style="fill:#FFCA28;" d="M384.771,134.708C379.708,147.344,320,370.156,320,384c0,6.771,3.854,14.406,8.688,21.333h-39.771
		c0.729-11.229,1.146-27.021-1.396-35.177c-2.646-8.479-16.167-63.979-21.146-84.656c-2.333-9.583-18.417-9.583-20.75,0
		c-4.979,20.677-18.5,76.177-21.146,84.656c-2.542,8.156-2.125,23.948-1.396,35.177h-39.771C188.146,398.406,192,390.771,192,384
		c0-13.844-59.708-236.656-64.771-249.292c-0.938-2.385-2.125-4.625-3.458-6.708h38.104c-1.146,3.271-1.875,6.865-1.875,10.667
		c0,11.948,32.896,143.802,42.979,183.938c1.208,4.781,6.021,8.708,10.5,8.063c4.938-0.073,9.187-3.521,10.271-8.354L256,177.167
		l32.25,145.146c1.083,4.833,5.333,8.281,10.271,8.354c0.042,0,0.104,0,0.146,0c4.875,0,9.146-3.323,10.354-8.063
		C319.104,282.469,352,150.615,352,138.667c0-3.802-0.729-7.396-1.875-10.667h38.104
		C386.896,130.083,385.708,132.323,384.771,134.708z"/>
	<path style="fill:#FFCA28;" d="M448,64v23.236C440.751,79,433,71.249,424.764,64H448z"/>
	<path style="fill:#FFCA28;" d="M64,64h23.236C79,71.249,71.249,79,64,87.236V64z"/>
	<path style="fill:#FFCA28;" d="M64,448v-23.236C71.249,433,79,440.751,87.236,448H64z"/>
	<path style="fill:#FFCA28;" d="M448,448h-23.236c8.236-7.249,15.987-15,23.236-23.236V448z"/>
</g>
<linearGradient id="SVGID_1_" gradientUnits="userSpaceOnUse" x1="-39.0731" y1="639.8297" x2="-26.4409" y2="627.1975" gradientTransform="matrix(21.3333 0 0 -21.3333 996.3334 13791.667)">
	<stop  offset="0" style="stop-color:#000000;stop-opacity:0.1"/>
	<stop  offset="1" style="stop-color:#000000;stop-opacity:0"/>
</linearGradient>
<path style="fill:url(#SVGID_1_);" d="M468.423,156.923l-42.069-42.069c1.146,4.792-1.146,9.76-5.542,12
	c-3.479,1.771-13.146,8.052-16.25,15.771c-6.521,16.313-62.083,228.719-63.25,241.781c0.333,3.417,8.958,15.052,18.104,23.938
	c3.125,3.021,4.104,7.635,2.458,11.667c-1.625,4.021-5.542,6.656-9.875,6.656h-74.667c-3.021,0-5.896-1.281-7.917-3.521
	c-2.021-2.25-3-5.25-2.688-8.25c1.479-14.344,2.083-33.104,0.417-38.385c-1.625-5.208-6.458-24.479-11.146-43.469
	c-4.688,18.99-9.521,38.26-11.146,43.469c-1.667,5.292-1.063,24.042,0.417,38.385c0.313,3-0.667,6-2.688,8.25
	c-2.021,2.24-4.896,3.521-7.917,3.521H160c-1.688,0-3.186-0.693-4.637-1.418l61.951,61.951c12.616,2.107,25.482,3.467,38.686,3.467
	c129.396,0,234.667-105.271,234.667-234.667C490.667,220.566,482.546,187.072,468.423,156.923z M299.25,273.49
	c8.113-32.797,16.669-68.013,22.807-94.388l-58.944-58.945l-0.003,0.008c1.59,1.441,2.814,3.305,3.306,5.523L299.25,273.49z
	 M237.932,160.13l-46.661-46.661c1.604,4.094,0.521,8.75-2.729,11.729c-1.833,1.719-7.208,8-7.208,13.469
	c0.5,7.844,16.708,75.375,31.417,134.833L237.932,160.13z"/>
<linearGradient id="SVGID_2_" gradientUnits="userSpaceOnUse" x1="-46.5984" y1="640.0315" x2="-22.8079" y2="628.9373" gradientTransform="matrix(21.3333 0 0 -21.3333 996.3334 13791.667)">
	<stop  offset="0" style="stop-color:#FFFFFF;stop-opacity:0.2"/>
	<stop  offset="1" style="stop-color:#FFFFFF;stop-opacity:0"/>
</linearGradient>
<path style="fill:url(#SVGID_2_);" d="M512,256c0-52.169-15.763-100.691-42.667-141.203V53.333c0-5.896-4.771-10.667-10.667-10.667
	h-61.464C356.693,15.764,308.172,0,256,0S155.307,15.764,114.797,42.667H53.333c-5.896,0-10.667,4.771-10.667,10.667v61.464
	C15.763,155.309,0,203.831,0,256s15.763,100.691,42.667,141.203v61.464c0,5.896,4.771,10.667,10.667,10.667h61.464
	C155.307,496.236,203.828,512,256,512s100.693-15.764,141.203-42.667h61.464c5.896,0,10.667-4.771,10.667-10.667v-61.464
	C496.237,356.691,512,308.169,512,256z"/>
<g>
</g>
<g>
</g>
<g>
</g>
<g>
</g>
<g>
</g>
<g>
</g>
<g>
</g>
<g>
</g>
<g>
</g>
<g>
</g>
<g>
</g>
<g>
</g>
<g>
</g>
<g>
</g>
<g>
</g>
</svg>
